<svg width="288" height="97" viewBox="0 0 288 97" fill="none" xmlns="http://www.w3.org/2000/svg">
<path d="M46.1777 80.2773H48.0625L50.377 86.3809C50.8652 87.709 51.1647 88.6823 51.2754 89.3008H51.3535C51.4121 89.0599 51.5456 88.6107 51.7539 87.9531C51.9622 87.2891 52.138 86.7585 52.2812 86.3613L54.459 80.2773H56.3535L51.7344 92.4844C51.2852 93.6693 50.7513 94.5189 50.1328 95.0332C49.5143 95.5475 48.7493 95.8047 47.8379 95.8047C47.3496 95.8047 46.8646 95.7493 46.3828 95.6387V94.2422C46.7083 94.3203 47.099 94.3594 47.5547 94.3594C48.1146 94.3594 48.5898 94.2031 48.9805 93.8906C49.3711 93.5846 49.6901 93.1094 49.9375 92.4648L50.4941 91.0391L46.1777 80.2773ZM57.457 85.6973C57.457 83.9004 57.89 82.5169 58.7559 81.5469C59.6283 80.5703 60.8685 80.082 62.4766 80.082C62.9974 80.082 63.5117 80.1374 64.0195 80.248C64.5339 80.3522 64.957 80.4889 65.2891 80.6582L64.752 82.123C63.847 81.7845 63.0755 81.6152 62.4375 81.6152C61.3568 81.6152 60.5592 81.957 60.0449 82.6406C59.5306 83.3177 59.2734 84.3301 59.2734 85.6777C59.2734 86.9733 59.5306 87.9661 60.0449 88.6562C60.5592 89.3398 61.321 89.6816 62.3301 89.6816C63.2741 89.6816 64.2018 89.4733 65.1133 89.0566V90.6191C64.3711 91.0033 63.4499 91.1953 62.3496 91.1953C60.8066 91.1953 59.6055 90.7233 58.7461 89.7793C57.8867 88.8288 57.457 87.4681 57.457 85.6973ZM66.0996 91V89.6816C66.2363 89.7337 66.4186 89.7598 66.6465 89.7598C67.3626 89.7598 67.9323 89.0046 68.3555 87.4941C68.7852 85.9837 69.1204 83.5781 69.3613 80.2773H75.8262V91H74.0391V81.7422H70.8848C70.7025 84.0859 70.4551 85.9284 70.1426 87.2695C69.8366 88.6042 69.4329 89.584 68.9316 90.209C68.4368 90.8275 67.8021 91.1367 67.0273 91.1367C66.6042 91.1367 66.2949 91.0911 66.0996 91ZM77.5449 80.2773H79.4297L81.7441 86.3809C82.2324 87.709 82.5319 88.6823 82.6426 89.3008H82.7207C82.7793 89.0599 82.9128 88.6107 83.1211 87.9531C83.3294 87.2891 83.5052 86.7585 83.6484 86.3613L85.8262 80.2773H87.7207L83.1016 92.4844C82.6523 93.6693 82.1185 94.5189 81.5 95.0332C80.8815 95.5475 80.1165 95.8047 79.2051 95.8047C78.7168 95.8047 78.2318 95.7493 77.75 95.6387V94.2422C78.0755 94.3203 78.4661 94.3594 78.9219 94.3594C79.4818 94.3594 79.957 94.2031 80.3477 93.8906C80.7383 93.5846 81.0573 93.1094 81.3047 92.4648L81.8613 91.0391L77.5449 80.2773ZM89.4199 91V80.2773H95.9629V81.7617H91.1777V91H89.4199ZM98.0918 91V80.2773H99.752V86.8203L99.6738 88.7148L99.6348 89.2617L105.377 80.2773H107.535V91H105.895V84.6816L105.924 83.3242L105.973 82.0352L100.27 91H98.0918ZM116.539 85.6973C116.539 83.9004 116.972 82.5169 117.838 81.5469C118.71 80.5703 119.951 80.082 121.559 80.082C122.079 80.082 122.594 80.1374 123.102 80.248C123.616 80.3522 124.039 80.4889 124.371 80.6582L123.834 82.123C122.929 81.7845 122.158 81.6152 121.52 81.6152C120.439 81.6152 119.641 81.957 119.127 82.6406C118.613 83.3177 118.355 84.3301 118.355 85.6777C118.355 86.9733 118.613 87.9661 119.127 88.6562C119.641 89.3398 120.403 89.6816 121.412 89.6816C122.356 89.6816 123.284 89.4733 124.195 89.0566V90.6191C123.453 91.0033 122.532 91.1953 121.432 91.1953C119.889 91.1953 118.688 90.7233 117.828 89.7793C116.969 88.8288 116.539 87.4681 116.539 85.6973ZM126.744 91V80.2773H135.807V91H134.049V81.7812H128.502V91H126.744ZM138.629 85.7168C138.629 83.998 139.055 82.6309 139.908 81.6152C140.761 80.5931 141.913 80.082 143.365 80.082C144.713 80.082 145.787 80.5182 146.588 81.3906C147.389 82.2565 147.789 83.4316 147.789 84.916V85.9805H140.445C140.478 87.1979 140.787 88.1224 141.373 88.7539C141.959 89.3854 142.789 89.7012 143.863 89.7012C144.436 89.7012 144.98 89.6523 145.494 89.5547C146.008 89.4505 146.611 89.252 147.301 88.959V90.502C146.708 90.7559 146.152 90.9349 145.631 91.0391C145.11 91.1432 144.495 91.1953 143.785 91.1953C142.177 91.1953 140.914 90.7103 139.996 89.7402C139.085 88.7637 138.629 87.4225 138.629 85.7168ZM140.484 84.584H145.943C145.93 83.5814 145.699 82.8197 145.25 82.2988C144.801 81.778 144.166 81.5176 143.346 81.5176C142.506 81.5176 141.842 81.7878 141.354 82.3281C140.865 82.8685 140.576 83.6204 140.484 84.584ZM150.514 91V80.2773H152.271V89.5156H157.818V80.2773H159.576V89.5352H161.09V94.7207H159.371V91H150.514ZM161.852 81.7617V80.2773H170.553V81.7617H167.047V91H165.309V81.7617H161.852ZM171.988 85.7168C171.988 83.998 172.415 82.6309 173.268 81.6152C174.12 80.5931 175.273 80.082 176.725 80.082C178.072 80.082 179.146 80.5182 179.947 81.3906C180.748 82.2565 181.148 83.4316 181.148 84.916V85.9805H173.805C173.837 87.1979 174.146 88.1224 174.732 88.7539C175.318 89.3854 176.148 89.7012 177.223 89.7012C177.796 89.7012 178.339 89.6523 178.854 89.5547C179.368 89.4505 179.97 89.252 180.66 88.959V90.502C180.068 90.7559 179.511 90.9349 178.99 91.0391C178.469 91.1432 177.854 91.1953 177.145 91.1953C175.536 91.1953 174.273 90.7103 173.355 89.7402C172.444 88.7637 171.988 87.4225 171.988 85.7168ZM173.844 84.584H179.303C179.29 83.5814 179.059 82.8197 178.609 82.2988C178.16 81.778 177.525 81.5176 176.705 81.5176C175.865 81.5176 175.201 81.7878 174.713 82.3281C174.225 82.8685 173.935 83.6204 173.844 84.584ZM182.535 91L186.412 85.5215L182.711 80.2773H184.713L187.477 84.3203L190.211 80.2773H192.193L188.492 85.5215L192.398 91H190.396L187.477 86.7227L184.518 91H182.535ZM194.459 91V80.2773H196.217V84.7402H202.037V80.2773H203.795V91H202.037V86.2246H196.217V91H194.459ZM207.213 91V80.2773H208.873V86.8203L208.795 88.7148L208.756 89.2617L214.498 80.2773H216.656V91H215.016V84.6816L215.045 83.3242L215.094 82.0352L209.391 91H207.213ZM220.084 91V80.2773H221.842V85.4824L226.422 80.2773H228.346L223.766 85.4434L228.727 91H226.686L221.842 85.5605V91H220.084ZM230.67 91V80.2773H232.33V86.8203L232.252 88.7148L232.213 89.2617L237.955 80.2773H240.113V91H238.473V84.6816L238.502 83.3242L238.551 82.0352L232.848 91H230.67Z" fill="#F9F9F9"/>
<path d="M13.2 43.704H15.264C17.632 43.704 19.328 43.4 20.352 42.792C21.376 42.184 21.888 41.208 21.888 39.864C21.888 38.52 21.376 37.544 20.352 36.936C19.328 36.328 17.632 36.024 15.264 36.024H13.2V43.704ZM13.2 29.016H14.928C17.872 29.016 19.344 27.848 19.344 25.512C19.344 23.176 17.872 22.008 14.928 22.008H13.2V29.016ZM3.792 14.808H17.808C21.136 14.808 23.664 15.608 25.392 17.208C27.12 18.808 27.984 21.112 27.984 24.12C27.984 25.944 27.648 27.464 26.976 28.68C26.336 29.864 25.344 30.872 24 31.704C25.344 31.96 26.48 32.36 27.408 32.904C28.368 33.416 29.136 34.056 29.712 34.824C30.32 35.592 30.752 36.456 31.008 37.416C31.264 38.376 31.392 39.4 31.392 40.488C31.392 42.184 31.088 43.688 30.48 45C29.904 46.312 29.072 47.416 27.984 48.312C26.928 49.208 25.632 49.88 24.096 50.328C22.56 50.776 20.832 51 18.912 51H3.792V14.808ZM73.9309 22.776H62.7469V28.824H73.3069V36.792H62.7469V43.032H73.9309V51H53.3389V14.808H73.9309V22.776ZM106.434 29.736L117.906 14.808H129.522L115.17 31.944L130.866 51H118.674L106.434 35.304V51H97.0264V14.808H106.434V29.736ZM165.083 22.776V51H155.675V22.776H147.947V14.808H172.811V22.776H165.083ZM267.966 31.416H271.086C274.542 31.416 276.27 29.912 276.27 26.904C276.27 23.896 274.542 22.392 271.086 22.392H267.966V31.416ZM267.966 51H258.558V14.808H273.534C277.598 14.808 280.702 15.864 282.846 17.976C285.022 20.088 286.11 23.064 286.11 26.904C286.11 30.744 285.022 33.72 282.846 35.832C280.702 37.944 277.598 39 273.534 39H267.966V51Z" fill="#F9F9F9"/>
<circle cx="215" cy="32" r="27.5" stroke="#E59119" stroke-width="5"/>
<g clip-path="url(#clip0)">
<path d="M225.85 32.448C225.85 33.09 225.611 33.7319 225.134 34.2214L210.117 49.6236C209.161 50.6033 207.612 50.6033 206.658 49.6236C205.703 48.6442 205.703 47.056 206.658 46.0761L219.946 32.448L206.658 18.8199C205.703 17.8401 205.703 16.2521 206.658 15.2728C207.613 14.2925 209.162 14.2925 210.117 15.2728L225.134 30.6747C225.611 31.1644 225.85 31.8063 225.85 32.448Z" fill="#E59119"/>
</g>
<defs>
<clipPath id="clip0">
<rect width="35.8209" height="34.9254" fill="white" transform="translate(198.433 50.3584) rotate(-90)"/>
</clipPath>
</defs>
</svg>
